#Comment line ignore any data following # character 
#Hierarchical Translation and Rotation (.htr) file 
[Header]	
#Header keywords are followed by a single value 
FileType HTR		#Single word string
DataType HTRS		#Translation followed by rotation and scale data
FileVersion 1		#integer
NumSegments 64		#integer
NumFrames 3		#integer
DataFrameRate 30		#integer, data frame rate in this file
EulerRotationOrder ZYX
CalibrationUnits mm
RotationUnits Degrees
GlobalAxisofGravity Y
BoneLengthAxis Y
ScaleFactor 1.00
[SegmentNames&Hierarchy]
#CHILD	PARENT
Pinger_Root GLOBAL
Pelvis Pinger_Root
L_Hip Pelvis
R_Hip Pelvis
Rear_Leg01 Pelvis
Spine1 Pelvis
L_Leg01 L_Hip
L_Leg02 L_Leg01
L_Leg03 L_Leg02
L_Foot L_Leg03
L_Toe1_01 L_Foot
L_Toe2_01 L_Foot
L_Toe3_01 L_Foot
planeAlignerLeft L_Foot
L_Toe1_02 L_Toe1_01
L_Toe1_03 L_Toe1_02
L_Toe2_02 L_Toe2_01
L_Toe2_03 L_Toe2_02
L_Toe3_02 L_Toe3_01
L_Toe3_03 L_Toe3_02
planeLockWeightLeft planeAlignerLeft
R_Leg01 R_Hip
R_Leg02 R_Leg01
R_Leg03 R_Leg02
R_Foot R_Leg03
planeAlignerRight R_Foot
R_Toe1_01 R_Foot
R_Toe2_01 R_Foot
R_Toe3_01 R_Foot
planeLockWeightRight planeAlignerRight
R_Toe1_02 R_Toe1_01
R_Toe1_03 R_Toe1_02
R_Toe2_02 R_Toe2_01
R_Toe2_03 R_Toe2_02
R_Toe3_02 R_Toe3_01
R_Toe3_03 R_Toe3_02
Rear_Leg02 Rear_Leg01
Rear_Leg03 Rear_Leg02
Rear_Leg04 Rear_Leg03
Rear_Foot Rear_Leg04
planeAlignerCenter Rear_Foot
Rear_Toe1_01 Rear_Foot
Rear_Toe2_01 Rear_Foot
Rear_Toe3_01 Rear_Foot
planeLockWeightCenter planeAlignerCenter
Rear_Toe1_02 Rear_Toe1_01
Rear_Toe1_03 Rear_Toe1_02
Rear_Toe2_02 Rear_Toe2_01
Rear_Toe2_03 Rear_Toe2_02
Rear_Toe3_02 Rear_Toe3_01
Rear_Toe3_03 Rear_Toe3_02
Back_Bone Spine1
Head Spine1
Motor_Bone Back_Bone
Ping_Mechanism Back_Bone
BN_LookIK Head
bottomMouth Head
L_Mouth01 Head
L_mouthFront Head
mouthGun Head
R_Mouth01 Head
R_mouthFront Head
TopMouth Head
weapon_bone Head
[BasePosition]
#SegmentName Tx, Ty, Tz, Rx, Ry, Rz, BoneLength
Pinger_Root 0.000000 0.000000 0.000000 -90.000000 0.000000 0.000000 10.000000 
Pelvis 0.000000 0.000000 0.000000 0.000000 0.000000 0.000000 10.000000 
L_Hip 0.000000 0.000000 0.000000 0.000000 0.000000 0.000000 10.000000 
R_Hip 0.000000 0.000000 0.000000 0.000000 0.000000 0.000000 10.000000 
Rear_Leg01 0.000000 0.000000 0.000000 0.000000 0.000000 0.000000 10.000000 
Spine1 0.000000 0.000000 0.000000 0.000000 0.000000 0.000000 10.000000 
L_Leg01 0.000000 0.000000 0.000000 0.000000 0.000000 0.000000 10.000000 
L_Leg02 0.000000 0.000000 0.000000 0.000000 0.000000 0.000000 10.000000 
L_Leg03 0.000000 0.000000 0.000000 0.000000 0.000000 0.000000 10.000000 
L_Foot 0.000000 0.000000 0.000000 0.000000 0.000000 0.000000 10.000000 
L_Toe1_01 0.000000 0.000000 0.000000 0.000000 0.000000 0.000000 10.000000 
L_Toe2_01 0.000000 0.000000 0.000000 0.000000 0.000000 0.000000 10.000000 
L_Toe3_01 0.000000 0.000000 0.000000 0.000000 0.000000 0.000000 10.000000 
planeAlignerLeft 0.000000 0.000000 0.000000 0.000000 0.000000 0.000000 10.000000 
L_Toe1_02 0.000000 0.000000 0.000000 0.000000 0.000000 0.000000 10.000000 
L_Toe1_03 0.000000 0.000000 0.000000 0.000000 0.000000 0.000000 10.000000 
L_Toe2_02 0.000000 0.000000 0.000000 0.000000 0.000000 0.000000 10.000000 
L_Toe2_03 0.000000 0.000000 0.000000 0.000000 0.000000 0.000000 10.000000 
L_Toe3_02 0.000000 0.000000 0.000000 0.000000 0.000000 0.000000 10.000000 
L_Toe3_03 0.000000 0.000000 0.000000 0.000000 0.000000 0.000000 10.000000 
planeLockWeightLeft 0.000000 0.000000 0.000000 0.000000 0.000000 0.000000 10.000000 
R_Leg01 0.000000 0.000000 0.000000 0.000000 0.000000 0.000000 10.000000 
R_Leg02 0.000000 0.000000 0.000000 0.000000 0.000000 0.000000 10.000000 
R_Leg03 0.000000 0.000000 0.000000 0.000000 0.000000 0.000000 10.000000 
R_Foot 0.000000 0.000000 0.000000 0.000000 0.000000 0.000000 10.000000 
planeAlignerRight 0.000000 0.000000 0.000000 0.000000 0.000000 0.000000 10.000000 
R_Toe1_01 0.000000 0.000000 0.000000 0.000000 0.000000 0.000000 10.000000 
R_Toe2_01 0.000000 0.000000 0.000000 0.000000 0.000000 0.000000 10.000000 
R_Toe3_01 0.000000 0.000000 0.000000 0.000000 0.000000 0.000000 10.000000 
planeLockWeightRight 0.000000 0.000000 0.000000 0.000000 0.000000 0.000000 10.000000 
R_Toe1_02 0.000000 0.000000 0.000000 0.000000 0.000000 0.000000 10.000000 
R_Toe1_03 0.000000 0.000000 0.000000 0.000000 0.000000 0.000000 10.000000 
R_Toe2_02 0.000000 0.000000 0.000000 0.000000 0.000000 0.000000 10.000000 
R_Toe2_03 0.000000 0.000000 0.000000 0.000000 0.000000 0.000000 10.000000 
R_Toe3_02 0.000000 0.000000 0.000000 0.000000 0.000000 0.000000 10.000000 
R_Toe3_03 0.000000 0.000000 0.000000 0.000000 0.000000 0.000000 10.000000 
Rear_Leg02 0.000000 0.000000 0.000000 0.000000 0.000000 0.000000 10.000000 
Rear_Leg03 0.000000 0.000000 0.000000 0.000000 0.000000 0.000000 10.000000 
Rear_Leg04 0.000000 0.000000 0.000000 0.000000 0.000000 0.000000 10.000000 
Rear_Foot 0.000000 0.000000 0.000000 0.000000 0.000000 0.000000 10.000000 
planeAlignerCenter 0.000000 0.000000 0.000000 0.000000 0.000000 0.000000 10.000000 
Rear_Toe1_01 0.000000 0.000000 0.000000 0.000000 0.000000 0.000000 10.000000 
Rear_Toe2_01 0.000000 0.000000 0.000000 0.000000 0.000000 0.000000 10.000000 
Rear_Toe3_01 0.000000 0.000000 0.000000 0.000000 0.000000 0.000000 10.000000 
planeLockWeightCenter 0.000000 0.000000 0.000000 0.000000 0.000000 0.000000 10.000000 
Rear_Toe1_02 0.000000 0.000000 0.000000 0.000000 0.000000 0.000000 10.000000 
Rear_Toe1_03 0.000000 0.000000 0.000000 0.000000 0.000000 0.000000 10.000000 
Rear_Toe2_02 0.000000 0.000000 0.000000 0.000000 0.000000 0.000000 10.000000 
Rear_Toe2_03 0.000000 0.000000 0.000000 0.000000 0.000000 0.000000 10.000000 
Rear_Toe3_02 0.000000 0.000000 0.000000 0.000000 0.000000 0.000000 10.000000 
Rear_Toe3_03 0.000000 0.000000 0.000000 0.000000 0.000000 0.000000 10.000000 
Back_Bone 0.000000 0.000000 0.000000 0.000000 0.000000 0.000000 10.000000 
Head 0.000000 0.000000 0.000000 0.000000 0.000000 0.000000 10.000000 
Motor_Bone 0.000000 0.000000 0.000000 0.000000 0.000000 0.000000 10.000000 
Ping_Mechanism 0.000000 0.000000 0.000000 0.000000 0.000000 0.000000 10.000000 
BN_LookIK 0.000000 0.000000 0.000000 0.000000 0.000000 0.000000 10.000000 
bottomMouth 0.000000 0.000000 0.000000 0.000000 0.000000 0.000000 10.000000 
L_Mouth01 0.000000 0.000000 0.000000 0.000000 0.000000 0.000000 10.000000 
L_mouthFront 0.000000 0.000000 0.000000 0.000000 0.000000 0.000000 10.000000 
mouthGun 0.000000 0.000000 0.000000 0.000000 0.000000 0.000000 10.000000 
R_Mouth01 0.000000 0.000000 0.000000 0.000000 0.000000 0.000000 10.000000 
R_mouthFront 0.000000 0.000000 0.000000 0.000000 0.000000 0.000000 10.000000 
TopMouth 0.000000 0.000000 0.000000 0.000000 0.000000 0.000000 10.000000 
weapon_bone 0.000000 0.000000 0.000000 0.000000 0.000000 0.000000 10.000000 
#Beginning of Data. Separated by tabs
#Fr	Tx	Ty	Tz	Rx	Ry	Rz	SF
[Pinger_Root]
5 0.000000 0.000000 0.000000 -0.000075 -0.000000 -0.000020 0.000000
6 0.000000 0.000000 0.000000 -0.000075 -0.000000 -0.000020 0.000000
7 0.000000 0.000000 0.000000 -0.000075 -0.000000 -0.000020 0.000000
[Pelvis]
5 591.986877 648.263245 4588.367188 -62.018295 -84.587128 54.530132 4671.595215
6 646.584106 622.886841 4626.259766 -3.736943 -85.192093 -3.903825 4712.572266
7 691.064392 602.631165 4645.991211 27.847357 -83.663086 -35.651054 4735.606445
[L_Hip]
5 5.766392 125.831482 872.656799 160.158691 -45.484905 122.312202 881.701050
6 5.766392 125.831482 872.656799 160.158691 -45.484894 122.312202 881.701050
7 5.766392 125.831482 872.656799 160.158691 -45.484905 122.312202 881.701050
[R_Hip]
5 5.765438 125.836372 -872.654907 38.087841 49.812687 125.703735 881.699829
6 5.765438 125.836372 -872.654907 38.087841 49.812687 125.703735 881.699829
7 5.765438 125.836372 -872.654907 38.087841 49.812687 125.703735 881.699829
[Rear_Leg01]
5 -192.298416 -925.602966 -0.001907 169.776459 -2.391520 -163.622818 945.367432
6 -192.298416 -925.602966 -0.001907 170.442352 -0.911412 -158.978943 945.367432
7 -192.298416 -925.602966 -0.001907 170.645126 -0.723120 -155.476486 945.367432
[Spine1]
5 290.604584 5.007505 0.000477 -4.392487 18.309858 -0.340580 290.647736
6 290.604584 5.007505 0.000477 -9.017029 15.544548 -1.386763 290.647736
7 290.604584 5.007505 0.000477 -9.548393 14.274549 -0.391445 290.647736
[L_Leg01]
5 761.932007 -0.002384 -0.069261 26.244272 -8.534479 -27.376501 761.932068
6 761.932007 -0.002384 -0.069261 28.321157 -4.588468 -38.257668 761.932068
7 761.932007 -0.002384 -0.069261 29.538898 -1.674608 -43.222904 761.932068
[L_Leg02]
5 1441.140503 -0.000954 -0.000715 -0.906246 0.109110 -90.499748 1441.140503
6 1441.140503 -0.000954 -0.000715 -1.464127 0.258104 -78.280655 1441.140503
7 1441.140503 -0.000954 -0.000715 -1.570413 0.326848 -72.653954 1441.140503
[L_Leg03]
5 1686.963989 -0.000715 -0.000954 -0.007310 0.005010 112.376396 1686.963989
6 1686.963989 -0.000715 -0.000954 0.005202 -0.004395 108.589729 1686.963989
7 1686.963989 -0.000715 -0.000954 0.016177 -0.002256 105.880547 1686.963989
[L_Foot]
5 3041.570068 -30.715107 11.297464 -3.945632 13.169409 40.200302 3041.746094
6 3041.570068 -30.715107 11.297464 -4.071506 13.092474 38.311993 3041.746094
7 3041.570068 -30.715107 11.297464 -4.275034 13.054175 37.842529 3041.746094
[L_Toe1_01]
5 -188.216690 -224.732346 -21.137953 93.545128 -5.861153 -169.868073 293.899567
6 -188.216690 -224.732346 -21.137953 93.490631 -5.507936 -169.214417 293.899567
7 -188.216690 -224.732346 -21.137953 93.472778 -5.237259 -168.956772 293.899567
[L_Toe2_01]
5 200.746536 -219.926590 148.838394 -89.597328 -24.471962 -55.008785 332.896027
6 200.746536 -219.926590 148.838394 -89.532188 -23.917345 -55.571983 332.896027
7 200.746536 -219.926590 148.838394 -89.556519 -23.548456 -55.782967 332.896027
[L_Toe3_01]
5 188.832520 -219.859131 -191.078659 -100.673172 14.051198 -71.129868 347.140900
6 188.832520 -219.859131 -191.078659 -100.931076 14.183290 -72.012154 347.140900
7 188.832520 -219.859131 -191.078659 -101.103584 14.356860 -72.442848 347.140900
[planeAlignerLeft]
5 0.812531 -811.448792 -0.314951 0.000000 -90.000000 -90.001900 811.449280
6 0.812531 -811.448792 -0.314951 0.000000 -90.000000 -90.001900 811.449280
7 0.812531 -811.448792 -0.314951 0.000000 -90.000000 -90.001900 811.449280
[L_Toe1_02]
5 413.761139 0.000477 0.000000 0.000203 -25.410625 -0.000182 413.761139
6 413.761139 0.000477 0.000000 0.000203 -25.410625 -0.000182 413.761139
7 413.761139 0.000477 0.000000 0.000203 -25.410625 -0.000182 413.761139
[L_Toe1_03]
5 464.317322 0.000358 -0.000089 0.003670 52.701530 0.003670 464.317322
6 464.317322 0.000358 -0.000089 0.003647 52.458683 0.003647 464.317322
7 464.317322 0.000358 -0.000089 0.003648 52.466030 0.003648 464.317322
[L_Toe2_02]
5 342.235809 -0.000477 0.000238 0.001189 -71.269012 0.001189 342.235809
6 342.235809 -0.000477 0.000238 0.001190 -70.901443 0.001190 342.235809
7 342.235809 -0.000477 0.000238 0.001190 -70.924042 0.001190 342.235809
[L_Toe2_03]
5 420.210846 -0.000715 0.000000 0.017747 82.416359 0.017747 420.210846
6 420.210846 -0.000715 0.000000 0.016221 81.701752 0.016221 420.210846
7 420.210846 -0.000715 0.000000 0.015933 81.551445 0.015933 420.210846
[L_Toe3_02]
5 329.270111 0.000954 0.000000 0.001179 -78.598007 0.001179 329.270111
6 329.270111 0.000954 0.000000 0.001180 -77.951027 0.001180 329.270111
7 329.270111 0.000954 0.000000 0.001181 -77.601593 0.001181 329.270111
[L_Toe3_03]
5 439.137451 -0.001907 0.000954 -179.987350 85.422554 -179.983856 439.137451
6 439.137451 -0.001907 0.000954 -179.976776 87.362923 -179.973267 439.137451
7 439.137451 -0.001907 0.000954 -179.960754 88.392822 -179.957260 439.137451
[planeLockWeightLeft]
5 -0.000954 0.000238 -0.000305 -0.011826 -0.004376 0.005620 0.001029
6 -0.000954 0.000238 -0.000305 -0.011826 -0.004376 0.005620 0.001029
7 -0.000954 0.000238 -0.000305 -0.011826 -0.004376 0.005620 0.001029
[R_Leg01]
5 761.455627 -0.001907 -0.000358 121.390907 -13.480004 36.792187 761.455688
6 761.455627 -0.001907 -0.000358 119.129196 -10.319330 37.550304 761.455688
7 761.455627 -0.001907 -0.000358 117.798798 -7.732114 39.354221 761.455688
[R_Leg02]
5 1441.140625 0.000000 -0.000238 -1.339168 -0.198485 -118.820679 1441.140625
6 1441.140625 0.000000 -0.000238 -1.425959 -0.238088 -121.268959 1441.140625
7 1441.140625 0.000000 -0.000238 -1.425817 -0.238936 -121.337044 1441.140625
[R_Leg03]
5 1686.963989 0.000954 0.001431 0.075767 -0.043575 131.391556 1686.963989
6 1686.963989 0.000954 0.001431 0.080045 -0.041980 132.020264 1686.963989
7 1686.963989 0.000954 0.001431 0.080039 -0.041991 132.036499 1686.963989
[R_Foot]
5 3041.560059 -30.531288 -11.204481 -8.455832 -24.696869 55.571693 3041.734131
6 3041.560059 -30.531288 -11.204481 -9.173003 -24.678160 56.602432 3041.734131
7 3041.560059 -30.531288 -11.204481 -9.930647 -24.700109 56.982170 3041.734131
[planeAlignerRight]
5 -0.635147 -812.270569 -0.364304 0.000000 -89.960434 -90.005180 812.270874
6 -0.635147 -812.270569 -0.364304 0.000000 -89.960434 -90.005180 812.270874
7 -0.635147 -812.270569 -0.364304 0.000000 -89.960434 -90.005180 812.270874
[R_Toe1_01]
5 -188.383347 -224.864899 21.052242 76.621811 3.443268 -171.410385 294.101532
6 -188.383347 -224.864899 21.052242 76.627350 4.297810 -168.143097 294.101532
7 -188.383347 -224.864899 21.052242 76.664337 4.767242 -166.343185 294.101532
[R_Toe2_01]
5 200.637817 -220.002121 -148.787384 -93.784943 37.042747 -60.390244 332.857574
6 200.637817 -220.002121 -148.787384 -95.226379 36.561749 -63.195778 332.857574
7 200.637817 -220.002121 -148.787384 -95.927376 36.309914 -64.573311 332.857574
[R_Toe3_01]
5 188.606735 -220.092957 191.126343 -74.681137 -6.344722 -72.336952 347.192566
6 188.606735 -220.092957 191.126343 -74.927422 -5.210189 -75.067467 347.192566
7 188.606735 -220.092957 191.126343 -75.088333 -4.621526 -76.470673 347.192566
[planeLockWeightRight]
5 -0.000477 0.000000 0.000000 -0.011823 -0.004379 -0.000027 0.000477
6 -0.000477 0.000000 0.000000 -0.011823 -0.004379 -0.000027 0.000477
7 -0.000477 0.000000 0.000000 -0.011823 -0.004379 -0.000027 0.000477
[R_Toe1_02]
5 413.762085 0.000477 -0.000119 0.001387 -25.612192 0.001387 413.762085
6 413.762085 0.000477 -0.000119 0.001384 -25.926647 0.001384 413.762085
7 413.762085 0.000477 -0.000119 0.001385 -25.910156 0.001385 413.762085
[R_Toe1_03]
5 464.317810 0.000000 0.001088 0.004655 60.791573 0.004655 464.317810
6 464.317810 0.000000 0.001088 0.004057 56.368187 0.004057 464.317810
7 464.317810 0.000000 0.001088 0.003761 53.636013 0.003761 464.317810
[R_Toe2_02]
5 342.234741 -0.000954 0.000238 0.001195 -68.090454 0.001195 342.234741
6 342.234741 -0.000954 0.000238 0.001200 -65.813599 0.001200 342.234741
7 342.234741 -0.000954 0.000238 0.001203 -64.489120 0.001203 342.234741
[R_Toe2_03]
5 420.210846 0.000715 -0.000268 0.009226 75.382790 0.009226 420.210846
6 420.210846 0.000715 -0.000268 -0.005229 70.856964 -0.001683 420.210846
7 420.210846 0.000715 -0.000268 -0.004828 68.261665 -0.001268 420.210846
[R_Toe3_02]
5 329.270355 -0.000477 -0.000954 0.001179 -78.601433 0.001179 329.270355
6 329.270355 -0.000477 -0.000954 0.001181 -77.113747 0.001181 329.270355
7 329.270355 -0.000477 -0.000954 0.001182 -76.249306 0.001182 329.270355
[R_Toe3_03]
5 439.137939 0.000238 0.001431 -179.987854 85.261154 -179.984360 439.137939
6 439.137939 0.000238 0.001431 0.000000 89.799232 0.003499 439.137939
7 439.137939 0.000238 0.001431 -0.029947 87.663933 -0.026449 439.137939
[Rear_Leg02]
5 1162.777710 -0.029802 0.005960 0.684543 -2.906923 -124.690361 1162.777710
6 1162.777710 -0.029802 0.005960 0.761448 -2.888775 -126.239632 1162.777710
7 1162.777710 -0.029802 0.005960 0.821257 -2.870785 -127.562981 1162.777710
[Rear_Leg03]
5 607.192505 -0.013351 -0.073195 0.010640 -0.004790 64.830612 607.192505
6 607.192505 -0.013351 -0.073195 0.010618 -0.004838 65.347656 607.192505
7 607.192505 -0.013351 -0.073195 0.010596 -0.004886 65.864693 607.192505
[Rear_Leg04]
5 995.874512 -0.020504 -0.011921 -0.040653 -0.014792 59.283638 995.874573
6 995.874512 -0.020504 -0.011921 -0.042031 -0.016557 60.333370 995.874573
7 995.874512 -0.020504 -0.011921 -0.043442 -0.018297 61.383068 995.874573
[Rear_Foot]
5 3096.176270 -0.067472 -0.041425 -165.187988 79.642517 22.904451 3096.176270
6 3096.176270 -0.067472 -0.041425 -165.994904 79.065712 22.032341 3096.176270
7 3096.176270 -0.067472 -0.041425 -166.717728 78.486740 21.244198 3096.176270
[planeAlignerCenter]
5 0.350077 0.966311 -838.790894 0.000009 0.000003 -179.999985 838.791565
6 0.350077 0.966311 -838.790894 0.000009 0.000003 -179.999985 838.791565
7 0.350077 0.966311 -838.790894 0.000009 0.000003 -179.999985 838.791565
[Rear_Toe1_01]
5 0.653352 83.966492 -371.173737 0.288091 41.914127 90.413170 380.553192
6 0.653352 83.966492 -371.173737 0.288091 41.914127 90.413170 380.553192
7 0.653352 83.966492 -371.173737 0.288095 41.914120 90.413170 380.553192
[Rear_Toe2_01]
5 178.200760 -294.826019 -362.060547 -7.196267 34.406261 -66.271294 499.765686
6 178.200760 -294.826019 -362.060547 -7.196267 34.406261 -66.271294 499.765686
7 178.200760 -294.826019 -362.060547 -7.196267 34.406261 -66.271294 499.765686
[Rear_Toe3_01]
5 -153.359680 -308.780914 -362.060852 3.289418 33.518005 -112.540970 499.952881
6 -153.359680 -308.780914 -362.060852 3.289418 33.518005 -112.540970 499.952881
7 -153.359680 -308.780914 -362.060852 3.289418 33.518005 -112.540970 499.952881
[planeLockWeightCenter]
5 -0.000062 0.000238 0.000000 -0.011814 -0.004373 -0.000015 0.000246
6 -0.000062 0.000238 0.000000 -0.011814 -0.004373 -0.000015 0.000246
7 -0.000062 0.000238 0.000000 -0.011814 -0.004373 -0.000015 0.000246
[Rear_Toe1_02]
5 379.707825 0.194073 0.000477 -0.000242 -31.676744 0.006934 379.707855
6 379.707825 0.194073 0.000477 -0.000242 -31.676744 0.006934 379.707855
7 379.707825 0.194073 0.000477 -0.000242 -31.676744 0.006934 379.707855
[Rear_Toe1_03]
5 500.129700 0.165701 0.000119 -0.000103 51.902481 0.007295 500.129761
6 500.129700 0.165701 0.000119 -0.000103 51.902481 0.007295 500.129761
7 500.129700 0.165701 0.000119 -0.000103 51.902485 0.007295 500.129761
[Rear_Toe2_02]
5 340.494507 0.000238 -0.000954 0.001192 -69.854523 0.001192 340.494507
6 340.494507 0.000238 -0.000954 0.001192 -69.854523 0.001192 340.494507
7 340.494507 0.000238 -0.000954 0.001192 -69.854523 0.001192 340.494507
[Rear_Toe2_03]
5 433.103577 0.000000 0.000238 0.006696 69.810303 0.006696 433.103546
6 433.103577 0.000000 0.000238 0.006696 69.810326 0.006696 433.103546
7 433.103577 0.000000 0.000238 0.006696 69.810326 0.006696 433.103546
[Rear_Toe3_02]
5 340.494141 -0.000358 -0.000477 0.008288 -67.274704 -0.009460 340.494171
6 340.494141 -0.000358 -0.000477 0.008288 -67.274712 -0.009460 340.494171
7 340.494141 -0.000358 -0.000477 0.008288 -67.274704 -0.009460 340.494171
[Rear_Toe3_03]
5 433.103577 0.001431 -0.000238 -0.000972 65.958984 -0.004547 433.103546
6 433.103577 0.001431 -0.000238 -0.000972 65.959007 -0.004547 433.103546
7 433.103577 0.001431 -0.000238 -0.000972 65.958984 -0.004547 433.103546
[Back_Bone]
5 1312.175781 -701.934692 0.000954 0.000023 -0.000007 -85.606667 1488.125488
6 1312.175781 -701.934692 0.000954 0.000023 -0.000007 -85.606667 1488.125488
7 1312.175781 -701.934692 0.000954 0.000023 -0.000007 -85.606667 1488.125488
[Head]
5 1406.159424 809.709290 0.001431 -0.103404 4.317958 6.410323 1622.625488
6 1406.159424 809.709290 0.001431 0.419611 5.831918 -0.447420 1622.625488
7 1406.159424 809.709290 0.001431 0.702013 7.003914 -2.160501 1622.625488
[Motor_Bone]
5 1158.364380 -417.834747 0.000477 -0.000105 0.000046 -105.985291 1231.419434
6 1158.364380 -417.834747 0.000477 -0.000105 0.000046 -105.985291 1231.419434
7 1158.364380 -417.834747 0.000477 -0.000105 0.000046 -105.985291 1231.419434
[Ping_Mechanism]
5 1215.237793 -433.297150 0.000954 0.000103 -0.000053 82.120995 1290.174072
6 1215.237793 -433.297150 0.000954 0.000103 -0.000053 82.120995 1290.174072
7 1215.237793 -433.297150 0.000954 0.000103 -0.000053 82.120995 1290.174072
[BN_LookIK]
5 193.241119 1380.371704 -0.002861 0.000000 89.965736 -31.038179 1393.832153
6 193.241119 1380.371704 -0.002861 0.000000 89.965736 -31.038179 1393.832153
7 193.241119 1380.371704 -0.002861 0.000000 89.965736 -31.038179 1393.832153
[bottomMouth]
5 -435.092926 615.759399 -0.000954 -0.000022 0.000016 73.527184 753.966492
6 -435.092926 615.759399 -0.000954 -0.000022 0.000016 73.527184 753.966492
7 -435.092926 615.759399 -0.000954 -0.000022 0.000016 73.527184 753.966492
[L_Mouth01]
5 554.440979 7.658243 838.222046 150.204178 23.759130 109.605339 1005.027161
6 554.440979 7.658243 838.222046 150.204178 23.759130 109.605339 1005.027161
7 554.440979 7.658243 838.222046 150.204178 23.759130 109.605339 1005.027161
[L_mouthFront]
5 551.629089 934.514771 339.150421 0.000081 2.804060 79.119301 1136.941284
6 551.629089 934.514771 339.150421 0.000081 2.804060 79.119301 1136.941284
7 551.629089 934.514771 339.150421 0.000081 2.804060 79.119301 1136.941284
[mouthGun]
5 55.332661 1627.420898 0.000000 0.000023 0.000009 -11.038128 1628.361328
6 55.332661 1627.420898 0.000000 0.000023 0.000009 -11.038128 1628.361328
7 55.332661 1627.420898 0.000000 0.000023 0.000009 -11.038128 1628.361328
[R_Mouth01]
5 554.442383 7.659197 -838.223938 29.795891 -23.759109 109.605331 1005.029541
6 554.442383 7.659197 -838.223938 29.795891 -23.759109 109.605331 1005.029541
7 554.442383 7.659197 -838.223938 29.795891 -23.759109 109.605331 1005.029541
[R_mouthFront]
5 551.629089 934.514282 -339.151367 0.000029 -2.803930 79.119133 1136.941162
6 551.629089 934.514282 -339.151367 0.000029 -2.803930 79.119133 1136.941162
7 551.629089 934.514282 -339.151367 0.000029 -2.803930 79.119133 1136.941162
[TopMouth]
5 461.269867 -56.106091 -0.008583 -0.000059 -0.000268 92.025169 464.669525
6 461.269867 -56.106091 -0.008583 -0.000059 -0.000268 92.025169 464.669525
7 461.269867 -56.106091 -0.008583 -0.000059 -0.000268 92.025169 464.669525
[weapon_bone]
5 -987.239868 1448.372803 0.001431 0.000000 89.965736 -31.038221 1752.833740
6 -987.239868 1448.372803 0.001431 0.000000 89.965736 -31.038221 1752.833740
7 -987.239868 1448.372803 0.001431 0.000000 89.965736 -31.038221 1752.833740
